<svg width="32" height="32" fill="none" xmlns="http://www.w3.org/2000/svg"><rect width="32" height="32" rx="10" fill="url(#a)"/><rect width="32" height="32" rx="10" fill="url(#b)"/><path d="M12 16h.01H12Zm4 0h.01H16Zm4 0h.01H20Zm5 0c0 4.418-4.03 8-9 8a9.862 9.862 0 0 1-4.255-.949L7 24l1.395-3.72C7.512 19.042 7 17.574 7 16c0-4.418 4.03-8 9-8s9 3.582 9 8Z" stroke="#fff" stroke-width="2" stroke-linecap="round" stroke-linejoin="round"/><defs><linearGradient id="a" x1="0" y1="0" x2="16" y2="16" gradientUnits="userSpaceOnUse"><stop stop-color="#4ADE80"/><stop offset=".996" stop-color="#16A34A"/></linearGradient><linearGradient id="b" x1="16" y1="16" x2="32" y2="32" gradientUnits="userSpaceOnUse"><stop stop-color="#16A34A"/><stop offset="1" stop-color="#4ADE80"/></linearGradient></defs></svg>